
        <svg xmlns="http://www.w3.org/2000/svg" xmlns:xlink="http://www.w3.org/1999/xlink" version="1.1" width="3174.4186046511627" height="1163.5683980110075" viewBox="0 0 3174.4186046511627 1163.5683980110075">
			
			<g transform="scale(8.720930232558139) translate(10, 10)">
				<defs id="SvgjsDefs1500"/><g id="SvgjsG1501" featureKey="symbolFeature-0" transform="matrix(1.1148271448910405,0,0,1.1148271448910405,14.314380072600873,10.078036709378514)" fill="#000"><path xmlns="http://www.w3.org/2000/svg" d="M89.2,64.3c-2.4,0-4.4,1.5-5.2,3.5l-26-5.2c0-0.2,0-0.3,0-0.5c0-0.7-0.1-1.4-0.3-2.1l14-6.1c1.4,2.3,3.9,3.9,6.8,3.9  c4.4,0,8-3.6,8-8c0-3.2-1.9-6-4.7-7.2l1.9-6.5c0.2,0,0.4,0.1,0.6,0.1c1,0,2-0.4,2.7-1.1c1.6-1.5,1.7-4,0.2-5.6  c-0.7-0.8-1.8-1.2-2.9-1.2c-1,0-2,0.4-2.7,1.1c-0.8,0.7-1.2,1.7-1.2,2.8c0,1.1,0.3,2.1,1.1,2.8c0.4,0.4,0.8,0.7,1.3,0.9l-1.8,6.4  c-0.8-0.2-1.6-0.4-2.4-0.4c-2.2,0-4.2,0.9-5.6,2.3l-2-2c1.7-2.1,1.7-5.2-0.2-7.2c-1-1.1-2.5-1.7-4-1.7c-1.4,0-2.7,0.5-3.7,1.5  c-0.6,0.6-1.1,1.3-1.4,2.1l-8.4-1.4l1.1-15.8c2.7-0.3,4.8-2.6,4.8-5.4c0-3-2.4-5.4-5.4-5.4s-5.4,2.4-5.4,5.4c0,2.5,1.7,4.7,4.1,5.3  l-1.1,15.6L38,32.8c-0.1-0.9-0.4-1.7-1-2.4c-0.7-0.8-1.8-1.2-2.9-1.2c-0.8,0-1.6,0.3-2.3,0.7l-6.6-7.2c0.6-0.7,1-1.6,1-2.5  c0-2.2-1.8-4-4-4s-4,1.8-4,4s1.8,4,4,4c0.9,0,1.6-0.3,2.3-0.7l6.6,7.2c-1.2,1.5-1.3,3.6,0,5.1L25,45.6c-0.9-0.4-1.9-0.6-2.9-0.6  c-1.8,0-3.6,0.7-4.9,1.9c-0.3,0.3-0.6,0.6-0.8,0.9l-3.7-2.4c0.3-0.5,0.4-1.1,0.4-1.7c0-2.2-1.8-4-4-4s-4,1.8-4,4s1.8,4,4,4  c1.2,0,2.3-0.6,3-1.4l3.7,2.4c-1.5,2.6-1.1,6.1,1,8.4c0.3,0.3,0.5,0.5,0.8,0.7l-3.2,4.5c-0.7-0.3-1.5-0.5-2.3-0.5  c-3,0-5.5,2.4-5.5,5.5s2.4,5.5,5.5,5.5s5.5-2.4,5.5-5.5c0-1.4-0.6-2.8-1.5-3.7l3.4-4.6c0.8,0.3,1.7,0.5,2.7,0.5  c1.2,0,2.4-0.3,3.4-0.9L33.1,70c-0.9,0.7-1.4,1.8-1.4,3c0,2.2,1.8,4,4,4s4-1.8,4-4s-1.8-4-4-4c-0.6,0-1.2,0.2-1.7,0.4l-7.5-11.6  c0.2-0.2,0.4-0.3,0.6-0.5c2.9-2.7,3-7.2,0.3-10.1c-0.2-0.2-0.4-0.4-0.7-0.6l6-9.8c0.4,0.2,0.9,0.3,1.3,0.3c1,0,2-0.4,2.7-1.1  c0.4-0.4,0.7-0.8,0.9-1.2l13.4,2.3L50,54.5c-1.6,0.1-3,0.7-4.2,1.6L43.9,54c0.6-0.7,1-1.6,1-2.6c0-2.2-1.8-4-4-4s-4,1.8-4,4  s1.8,4,4,4c0.8,0,1.6-0.3,2.3-0.7l1.9,2.1c-1.3,1.4-2.1,3.2-2.1,5.3c0,4.1,3.2,7.4,7.2,7.6l0.3,12.2c-2.7,0.3-4.8,2.6-4.8,5.4  c0,3,2.4,5.4,5.4,5.4s5.4-2.4,5.4-5.4c0-2.9-2.2-5.2-5.1-5.4l-0.3-12.2c3-0.3,5.5-2.3,6.5-5.1l26,5.2c0,0,0,0.1,0,0.1  c0,3.1,2.5,5.6,5.6,5.6s5.6-2.5,5.6-5.6S92.2,64.3,89.2,64.3z M83,30.7c0.4-0.3,0.8-0.5,1.3-0.5c0.5,0,1.1,0.2,1.4,0.6  c0.7,0.8,0.7,2-0.1,2.8c-0.8,0.7-2.1,0.7-2.8-0.1c-0.4-0.4-0.5-0.9-0.5-1.4S82.6,31,83,30.7z M9.2,45.7c-1.1,0-2-0.9-2-2  c0-1.1,0.9-2,2-2s2,0.9,2,2C11.2,44.8,10.3,45.7,9.2,45.7z M12.2,70.6c-1.9,0-3.5-1.6-3.5-3.5s1.6-3.5,3.5-3.5s3.5,1.6,3.5,3.5  S14.1,70.6,12.2,70.6z M37.6,73.1c0,1.1-0.9,2-2,2c-1.1,0-2-0.9-2-2c0-1.1,0.9-2,2-2C36.7,71.1,37.6,72,37.6,73.1z M25.7,55.9  c-1,0.9-2.2,1.4-3.5,1.4c-1.4,0-2.8-0.6-3.8-1.6c-1.9-2.1-1.8-5.3,0.2-7.3c1-0.9,2.2-1.4,3.5-1.4c1.4,0,2.8,0.6,3.8,1.6  C27.9,50.7,27.8,54,25.7,55.9z M22.2,22.1c-1.1,0-2-0.9-2-2c0-1.1,0.9-2,2-2s2,0.9,2,2C24.1,21.2,23.3,22.1,22.2,22.1z M35.5,34.6  c-0.8,0.7-2.1,0.7-2.8-0.1c-0.7-0.8-0.7-2,0.1-2.8c0.4-0.3,0.8-0.5,1.3-0.5c0.5,0,1.1,0.2,1.4,0.6C36.3,32.6,36.2,33.8,35.5,34.6z   M78.5,43.8c3.3,0,6,2.7,6,6s-2.7,6-6,6s-6-2.7-6-6S75.2,43.8,78.5,43.8z M64.4,36.2c0.6-0.6,1.5-0.9,2.4-0.9c1,0,1.9,0.4,2.5,1.1  c1.3,1.4,1.2,3.6-0.2,4.9c-0.6,0.6-1.5,0.9-2.4,0.9c-1,0-1.9-0.4-2.5-1.1C62.9,39.6,63,37.5,64.4,36.2z M61.3,38.8  c0,1.3,0.5,2.6,1.5,3.6c1,1.1,2.5,1.7,4,1.7c1.3,0,2.5-0.5,3.5-1.3l2,2c-1,1.3-1.7,3-1.7,4.9c0,0.8,0.1,1.5,0.3,2.3l-14,6.1  c-1.1-1.8-2.9-3.1-5-3.5l1.2-17.3L61.3,38.8z M50.2,14.1c0-1.9,1.5-3.4,3.4-3.4s3.4,1.5,3.4,3.4s-1.5,3.4-3.4,3.4S50.2,16,50.2,14.1  z M40.9,53.4c-1.1,0-2-0.9-2-2c0-1.1,0.9-2,2-2s2,0.9,2,2C42.9,52.5,42,53.4,40.9,53.4z M54.5,87.3c0,1.9-1.5,3.4-3.4,3.4  s-3.4-1.5-3.4-3.4s1.5-3.4,3.4-3.4S54.5,85.4,54.5,87.3z M50.5,67.6c-3.1,0-5.6-2.5-5.6-5.6s2.5-5.6,5.6-5.6S56,59,56,62.1  S53.5,67.6,50.5,67.6z M89.2,73.4c-2,0-3.6-1.6-3.6-3.6s1.6-3.6,3.6-3.6s3.6,1.6,3.6,3.6S91.1,73.4,89.2,73.4z"/></g><g id="SvgjsG1502" featureKey="nameFeature-0" transform="matrix(1.0861197718180624,0,0,1.0861197718180624,140.8396112202987,39.13880228181938)" fill="#000"><path d="M26.699 19.531 c4.2969 0 7.0703 2.1875 7.0703 6.3086 l0 14.16 l-5.625 0 l0 -12.559 c0 -2.3633 -1.4844 -3.3984 -3.1641 -3.3984 c-2.0117 0 -3.7891 1.1523 -3.7891 4.6289 l0 11.328 l-5.6836 0 l0 -12.5 c0 -2.4023 -1.4453 -3.457 -3.2227 -3.457 c-1.9531 0 -3.7695 1.1523 -3.7695 4.9219 l0 11.035 l-5.6055 0 l0 -20.078 l5.6055 0 l0 2.3633 c1.3281 -1.7773 3.3594 -2.7539 5.8203 -2.7539 c2.9102 0 5.0977 1.0547 6.1523 3.0078 c1.4063 -2.0117 3.5547 -3.0078 6.2109 -3.0078 z M55.703125 34.5508 c0 2.4609 0.23438 4.0234 0.48828 4.9023 l0 0.54688 l-5.2539 0 l-0.44922 -2.1875 c-1.5039 1.8164 -4.1016 2.5781 -6.4453 2.5781 c-3.1641 0 -6.25 -1.4063 -6.25 -5.5859 c0 -4.1602 3.1055 -5.5664 7.3047 -6.4844 l3.3008 -0.74219 c1.4258 -0.33203 1.9336 -0.82031 1.9336 -1.6406 c0 -1.9727 -1.7969 -2.5195 -3.3789 -2.5195 c-2.0313 0 -3.5742 0.80078 -3.9258 3.0664 l-4.9805 -0.89844 c0.83984 -4.1602 3.8867 -6.0547 9.2188 -6.0547 c4.0234 0 8.4375 1.1914 8.4375 7.2461 l0 7.7734 z M45.800825 36.582 c2.6758 0 4.8242 -1.7773 4.8242 -5.7617 l-4.7656 1.3477 c-1.5625 0.37109 -2.6953 0.91797 -2.6953 2.2656 c0 1.4453 1.1914 2.1484 2.6367 2.1484 z M70.25371875 40.37109 c-6.3086 0 -10.762 -4.1992 -10.762 -10.43 c0 -6.25 4.4531 -10.41 10.762 -10.41 c5.0781 0 8.8867 2.6367 9.8633 7.3828 l-5.1953 0.56641 c-0.625 -2.4023 -2.3633 -3.5156 -4.7266 -3.5156 c-3.0273 0 -5.0781 2.3828 -5.0781 5.9766 c0 3.5742 2.0508 5.9766 5.0781 5.9766 c2.3633 0 4.1016 -1.1328 4.7266 -3.5156 l5.1953 0.56641 c-0.97656 4.7461 -4.8828 7.4023 -9.8633 7.4023 z M97.4219375 19.922 l5.625 0 l0 20.078 l-5.332 0 l-0.13672 -2.4219 c-1.4063 1.7773 -3.6328 2.8125 -6.3867 2.8125 c-4.8242 0 -7.4805 -2.5195 -7.4805 -6.9531 l0 -13.516 l5.6445 0 l0 12.305 c0 2.6563 1.6602 3.6328 3.6133 3.6328 c2.3242 0 4.4336 -1.1719 4.4531 -4.8633 l0 -11.074 z M108.86723125 40 l0 -30 l5.6836 0 l0 30 l-5.6836 0 z M136.8359375 34.5508 c0 2.4609 0.23438 4.0234 0.48828 4.9023 l0 0.54688 l-5.2539 0 l-0.44922 -2.1875 c-1.5039 1.8164 -4.1016 2.5781 -6.4453 2.5781 c-3.1641 0 -6.25 -1.4063 -6.25 -5.5859 c0 -4.1602 3.1055 -5.5664 7.3047 -6.4844 l3.3008 -0.74219 c1.4258 -0.33203 1.9336 -0.82031 1.9336 -1.6406 c0 -1.9727 -1.7969 -2.5195 -3.3789 -2.5195 c-2.0313 0 -3.5742 0.80078 -3.9258 3.0664 l-4.9805 -0.89844 c0.83984 -4.1602 3.8867 -6.0547 9.2188 -6.0547 c4.0234 0 8.4375 1.1914 8.4375 7.2461 l0 7.7734 z M126.9336375 36.582 c2.6758 0 4.8242 -1.7773 4.8242 -5.7617 l-4.7656 1.3477 c-1.5625 0.37109 -2.6953 0.91797 -2.6953 2.2656 c0 1.4453 1.1914 2.1484 2.6367 2.1484 z M145.82033125 40.39063 c-1.7383 0 -3.2031 -1.4453 -3.2031 -3.2031 s1.4648 -3.2422 3.2031 -3.2422 c1.7773 0 3.2422 1.4844 3.2422 3.2422 s-1.4648 3.2031 -3.2422 3.2031 z M158.06645625 16.914 c-1.7773 0 -3.2617 -1.4453 -3.2617 -3.2422 c0 -1.7773 1.4844 -3.2227 3.2617 -3.2227 c1.7383 0 3.2227 1.4453 3.2227 3.2227 c0 1.7969 -1.4844 3.2422 -3.2227 3.2422 z M155.19535625 40 l0 -20.078 l5.6641 0 l0 20.078 l-5.6641 0 z M176.03553125 40.39063 c-6.3867 0 -10.996 -3.8867 -10.996 -10.449 c0 -6.5234 4.5703 -10.41 10.996 -10.41 c6.4648 0 11.016 3.8867 11.016 10.41 c0 6.5625 -4.5703 10.449 -11.016 10.449 z M175.97653125 35.918 c3.2617 0 5.4883 -2.3828 5.4883 -5.9766 s-2.2266 -5.9766 -5.4883 -5.9766 c-3.1445 0 -5.3516 2.3828 -5.3516 5.9766 s2.207 5.9766 5.3516 5.9766 z"/></g>
			</g>
		</svg>
	