<?xml version="1.0" encoding="UTF-8"?>
<svg xmlns="http://www.w3.org/2000/svg" viewBox="0 0 800 420" width="800" height="420">
  <defs>
    <marker id="arrow" markerWidth="8" markerHeight="6" refX="8" refY="3" orient="auto">
      <path d="M0,0 L8,3 L0,6 Z" fill="#2563eb"/>
    </marker>
    <marker id="arrow-gray" markerWidth="8" markerHeight="6" refX="8" refY="3" orient="auto">
      <path d="M0,0 L8,3 L0,6 Z" fill="#6b7280"/>
    </marker>
  </defs>

  <style>
    text { font-family: 'Segoe UI', system-ui, sans-serif; fill: #1e293b; }
    .title { font-size: 11px; font-weight: 600; }
    .label { font-size: 9px; }
    .label-small { font-size: 8px; fill: #475569; }
    .label-topic { font-size: 8px; fill: #2563eb; font-family: monospace; }
    .label-crypto { font-size: 7.5px; fill: #059669; font-weight: 600; }
    .box { fill: #f8fafc; stroke: #cbd5e1; stroke-width: 1; rx: 3; }
    .box-node { fill: #f1f5f9; stroke: #94a3b8; stroke-width: 1.5; rx: 5; }
    .box-relay { fill: #eff6ff; stroke: #2563eb; stroke-width: 1.5; rx: 5; }
    .box-accent { fill: #eff6ff; stroke: #93c5fd; stroke-width: 1; rx: 3; }
    .box-sup { fill: #fef3c7; stroke: #f59e0b; stroke-width: 1; rx: 3; stroke-dasharray: 4,2; }
    .loopback { stroke: #9ca3af; stroke-width: 1; stroke-dasharray: 3,2; fill: none; }
  </style>

  <!-- Background -->
  <rect width="800" height="420" fill="#ffffff" rx="0"/>

  <!-- ==================== NODE A (Left) ==================== -->
  <rect x="20" y="30" width="230" height="360" class="box-node"/>
  <text x="135" y="22" text-anchor="middle" class="title" font-size="12">Node A (Milan)</text>

  <!-- dist_util -->
  <rect x="55" y="48" width="160" height="28" class="box"/>
  <text x="135" y="66" text-anchor="middle" class="title">dist_util</text>

  <!-- DistSock -->
  <rect x="55" y="95" width="160" height="36" class="box-accent"/>
  <text x="135" y="111" text-anchor="middle" class="title">DistSock</text>
  <text x="135" y="123" text-anchor="middle" class="label-small">gen_tcp {packet, 2&#x2192;4}</text>

  <!-- Loopback pair label -->
  <text x="135" y="146" text-anchor="middle" class="label-small" font-style="italic">loopback pair</text>
  <path d="M 100,131 L 100,148 L 170,148 L 170,160" class="loopback"/>

  <!-- Supervised bridge group -->
  <rect x="33" y="155" width="204" height="210" class="box-sup"/>
  <text x="135" y="168" text-anchor="middle" class="label-small" fill="#92400e">macula_dist_bridge (gen_server)</text>

  <!-- BridgeSock -->
  <rect x="55" y="175" width="160" height="30" class="box-accent"/>
  <text x="135" y="193" text-anchor="middle" class="title">BridgeSock</text>

  <!-- reader -->
  <rect x="40" y="220" width="100" height="28" class="box"/>
  <text x="90" y="238" text-anchor="middle" class="label">reader</text>

  <!-- writer (handle_info) -->
  <rect x="150" y="220" width="80" height="28" class="box"/>
  <text x="190" y="238" text-anchor="middle" class="label">writer</text>

  <!-- encrypt/decrypt labels -->
  <text x="90" y="260" text-anchor="middle" class="label-crypto">encrypt &#x2192;</text>
  <text x="190" y="260" text-anchor="middle" class="label-crypto">&#x2190; decrypt</text>

  <!-- metrics -->
  <rect x="55" y="272" width="80" height="22" class="box"/>
  <text x="95" y="287" text-anchor="middle" class="label-small">metrics</text>

  <!-- monitor -->
  <rect x="145" y="272" width="80" height="22" class="box"/>
  <text x="185" y="287" text-anchor="middle" class="label-small">relay monitor</text>

  <!-- supervision label -->
  <text x="135" y="347" text-anchor="middle" class="label-small" fill="#92400e">supervised by macula_dist_bridge_sup</text>

  <!-- Arrows inside Node A -->
  <line x1="135" y1="76" x2="135" y2="95" stroke="#6b7280" stroke-width="1" marker-end="url(#arrow-gray)"/>

  <!-- ==================== NODE B (Right) ==================== -->
  <rect x="550" y="30" width="230" height="360" class="box-node"/>
  <text x="665" y="22" text-anchor="middle" class="title" font-size="12">Node B (Stockholm)</text>

  <!-- dist_util -->
  <rect x="585" y="48" width="160" height="28" class="box"/>
  <text x="665" y="66" text-anchor="middle" class="title">dist_util</text>

  <!-- DistSock -->
  <rect x="585" y="95" width="160" height="36" class="box-accent"/>
  <text x="665" y="111" text-anchor="middle" class="title">DistSock</text>
  <text x="665" y="123" text-anchor="middle" class="label-small">gen_tcp {packet, 2&#x2192;4}</text>

  <!-- Loopback pair label -->
  <text x="665" y="146" text-anchor="middle" class="label-small" font-style="italic">loopback pair</text>
  <path d="M 630,131 L 630,148 L 700,148 L 700,160" class="loopback"/>

  <!-- Supervised bridge group -->
  <rect x="563" y="155" width="204" height="210" class="box-sup"/>
  <text x="665" y="168" text-anchor="middle" class="label-small" fill="#92400e">macula_dist_bridge (gen_server)</text>

  <!-- BridgeSock -->
  <rect x="585" y="175" width="160" height="30" class="box-accent"/>
  <text x="665" y="193" text-anchor="middle" class="title">BridgeSock</text>

  <!-- reader -->
  <rect x="570" y="220" width="100" height="28" class="box"/>
  <text x="620" y="238" text-anchor="middle" class="label">reader</text>

  <!-- writer (handle_info) -->
  <rect x="680" y="220" width="80" height="28" class="box"/>
  <text x="720" y="238" text-anchor="middle" class="label">writer</text>

  <!-- encrypt/decrypt labels -->
  <text x="620" y="260" text-anchor="middle" class="label-crypto">encrypt &#x2192;</text>
  <text x="720" y="260" text-anchor="middle" class="label-crypto">&#x2190; decrypt</text>

  <!-- metrics -->
  <rect x="585" y="272" width="80" height="22" class="box"/>
  <text x="625" y="287" text-anchor="middle" class="label-small">metrics</text>

  <!-- monitor -->
  <rect x="675" y="272" width="80" height="22" class="box"/>
  <text x="715" y="287" text-anchor="middle" class="label-small">relay monitor</text>

  <!-- supervision label -->
  <text x="665" y="347" text-anchor="middle" class="label-small" fill="#92400e">supervised by macula_dist_bridge_sup</text>

  <!-- Arrows inside Node B -->
  <line x1="665" y1="76" x2="665" y2="95" stroke="#6b7280" stroke-width="1" marker-end="url(#arrow-gray)"/>

  <!-- ==================== RELAY (Center) ==================== -->
  <rect x="300" y="100" width="200" height="200" class="box-relay"/>
  <text x="400" y="92" text-anchor="middle" class="title" font-size="12" fill="#2563eb">Relay (Paris)</text>

  <!-- Pub/Sub topics -->
  <text x="400" y="130" text-anchor="middle" class="title" font-size="10" fill="#2563eb">Pub/Sub Topics</text>

  <!-- Topic A→B -->
  <rect x="315" y="145" width="170" height="28" rx="3" fill="#dbeafe" stroke="#93c5fd" stroke-width="1"/>
  <text x="400" y="163" text-anchor="middle" class="label-topic">_dist.data.{tun}.out</text>
  <text x="400" y="182" text-anchor="middle" class="label-small">A &#x2192; B</text>

  <!-- Topic B→A -->
  <rect x="315" y="195" width="170" height="28" rx="3" fill="#dbeafe" stroke="#93c5fd" stroke-width="1"/>
  <text x="400" y="213" text-anchor="middle" class="label-topic">_dist.data.{tun}.in</text>
  <text x="400" y="232" text-anchor="middle" class="label-small">B &#x2192; A</text>

  <!-- Encryption badge -->
  <rect x="340" y="245" width="120" height="18" rx="9" fill="#d1fae5" stroke="#059669" stroke-width="1"/>
  <text x="400" y="257" text-anchor="middle" class="label-crypto" font-size="8">AES-256-GCM encrypted</text>

  <!-- Relay info -->
  <text x="400" y="283" text-anchor="middle" class="label-small">QUIC transport + peering</text>

  <!-- ==================== Arrows: Node A ↔ Relay ==================== -->
  <line x1="140" y1="234" x2="300" y2="159" stroke="#2563eb" stroke-width="1.5" marker-end="url(#arrow)"/>
  <line x1="300" y1="209" x2="190" y2="234" stroke="#2563eb" stroke-width="1.5" marker-end="url(#arrow)"/>

  <!-- ==================== Arrows: Relay ↔ Node B ==================== -->
  <line x1="500" y1="159" x2="670" y2="234" stroke="#2563eb" stroke-width="1.5" marker-end="url(#arrow)"/>
  <line x1="620" y1="234" x2="500" y2="209" stroke="#2563eb" stroke-width="1.5" marker-end="url(#arrow)"/>

  <!-- ==================== Flow Labels ==================== -->
  <text x="215" y="185" text-anchor="middle" class="label-small" transform="rotate(-25,215,185)">publish</text>
  <text x="235" y="250" text-anchor="middle" class="label-small" transform="rotate(5,235,250)">subscribe</text>
  <text x="565" y="250" text-anchor="middle" class="label-small" transform="rotate(-5,565,250)">deliver</text>
  <text x="585" y="185" text-anchor="middle" class="label-small" transform="rotate(25,585,185)">publish</text>

  <!-- ==================== Legend ==================== -->
  <rect x="170" y="396" width="12" height="12" class="box-sup"/>
  <text x="188" y="406" class="label-small">= supervised process</text>
  <rect x="330" y="396" width="12" height="12" rx="6" fill="#d1fae5" stroke="#059669" stroke-width="1"/>
  <text x="348" y="406" class="label-small">= end-to-end encrypted</text>
  <line x1="500" y1="402" x2="520" y2="402" class="loopback"/>
  <text x="528" y="406" class="label-small">= TCP loopback</text>
</svg>
